# xmcd
#
# Track frame offsets:
#	150
#	14474
#	27737
#	40235
#	52818
#	65613
#	79404
#	92119
#	104221
#	115518
#	128488
#	149176
#	165149
#	178195
#	195179
#
# Disc length: 2800 seconds
#
# Revision: 0
# Processed by: cddbd v1.5.2PL0 Copyright (c) Steve Scherf et al.
# Submitted via: audiograbber 1.83.01
#
DISCID=cd0aee0f
DTITLE=Various Artist - Volksmusk für deine Seele - CD 1
DYEAR=2007
DGENRE=Folk
TTITLE0=Ann and Andi - Jägerhochzeit
TTITLE1=Marianne and Michael - Lustige Musikanten unterwegs
TTITLE2=Alpenoberkrainer - Guten Morgen
TTITLE3=Gitti and Erika - Gartenzwerg-Marsch
TTITLE4=Allgäupower - Schuhplattler-Boarischer
TTITLE5=Die jungen Original Oberkrainer - Triathlon-Polka
TTITLE6=Maria and Margot Hellwig - Legn ma los
TTITLE7=Brugger Buam  - Dirndl, i werd narrisch
TTITLE8=Dia Hiatamadln - Hiatajodler
TTITLE9=Florian Silbereisen - Links a Madl, rechts a Madl
TTITLE10=Maria and Margot Hellwig - Ein Sommer in den Bergen
TTITLE11=Die Schäfer - Nimm dir nur etwas Zeit
TTITLE12=Duo Treibsand - Die Tür bleibt zu
TTITLE13=Angela Wiedl - Ave Maria (Ewig bist Du)
TTITLE14=Stafanie Hertel and Stefan Mross - Ich tu es wieder mir dir
EXTD=
EXTT0=
EXTT1=
EXTT2=
EXTT3=
EXTT4=
EXTT5=
EXTT6=
EXTT7=
EXTT8=
EXTT9=
EXTT10=
EXTT11=
EXTT12=
EXTT13=
EXTT14=
PLAYORDER=
